The world's first permanent International Criminal Court is making headlines - issuing an arrest warrant for a sitting head of state for war crimes, Sudanese President Al-Bashir. Behind the charges: the court's controversial Prosecutor, Luis Moreno-Ocampo. The cameras follow the Prosecutor in New York as he defends the warrant at the UN Security Council; in The Hague, as he opens the Court's first trial of alleged Congolese war criminal Thomas Lubanga; and in the Congo as he meets citizens affected by the trial. Critics say Moreno-Ocampo's justice threatens peace. Champions of justice criticize his weaknesses. The Prosecutor must keep one step ahead of them all.
Go to episode page



General
Complete name                    : F:DVD RIPPER OUTPUT FOLDERThe ProsecutorProsecutor.UN.Luis Moreno-Ocampo.avi
Format                           : AVI
Format/Info                      : Audio Video Interleave
File size                        : 706 MiB
Duration                         : 1h 52mn
Overall bit rate                 : 877 Kbps
Writing application              : Lavf52.13.0

Video
ID                               : 0
Format                           : MPEG-4 Visual
Codec ID                         : MP42
Codec ID/Info                    : Microsoft MPEG-4 v2 (pre-standard)
Codec ID/Hint                    : Microsoft
Duration                         : 1h 52mn
Bit rate                         : 768 Kbps
Width                            : 720 pixels
Height                           : 480 pixels
Display aspect ratio             : 3:2
Frame rate                       : 29.970 fps
Standard                         : NTSC
Compression mode                 : Lossy
Bits/(Pixel*Frame)               : 0.074
Stream size                      : 618 MiB (88%)

Audio
ID                               : 1
Format                           : MPEG Audio
Format version                   : Version 1
Format profile                   : Layer 3
Mode                             : Joint stereo
Mode extension                   : MS Stereo
Codec ID                         : 55
Codec ID/Hint                    : MP3
Duration                         : 1h 52mn
Bit rate mode                    : Constant
Bit rate                         : 96.0 Kbps
Channel(s)                       : 2 channels
Sampling rate                    : 44.1 KHz
Compression mode                 : Lossy
Stream size                      : 77.2 MiB (11%)
Alignment                        : Aligned on interleaves
Interleave, duration             : 26 ms (0.78 video frame)
Interleave, preload duration     : 26 ms



